<svg width="24" height="18" viewBox="0 0 24 18" fill="none" xmlns="http://www.w3.org/2000/svg">
<mask id="mask0_610_14603" style="mask-type:luminance" maskUnits="userSpaceOnUse" x="0" y="0" width="24" height="18">
<rect width="24" height="18" fill="white"/>
</mask>
<g mask="url(#mask0_610_14603)">
<path fill-rule="evenodd" clip-rule="evenodd" d="M0 0V18H24V0H0Z" fill="#2E42A5"/>
<mask id="mask1_610_14603" style="mask-type:luminance" maskUnits="userSpaceOnUse" x="0" y="0" width="24" height="18">
<path fill-rule="evenodd" clip-rule="evenodd" d="M0 0V18H24V0H0Z" fill="white"/>
</mask>
<g mask="url(#mask1_610_14603)">
<mask id="mask2_610_14603" style="mask-type:luminance" maskUnits="userSpaceOnUse" x="0" y="0" width="24" height="18">
<rect width="24" height="18" fill="white"/>
</mask>
<g mask="url(#mask2_610_14603)">
<path d="M-2.67188 16.714L2.60939 18.9475L24.1203 2.4283L26.9061 -0.890816L21.2585 -1.63733L12.4847 5.48127L5.42272 10.2775L-2.67188 16.714Z" fill="white"/>
<path d="M-1.94922 18.2789L0.741343 19.5751L25.9054 -1.19913H22.1275L-1.94922 18.2789Z" fill="#F50100"/>
<path d="M26.6719 16.714L21.3906 18.9475L-0.12032 2.4283L-2.90607 -0.890816L2.74149 -1.63733L11.5153 5.48127L18.5773 10.2775L26.6719 16.714Z" fill="white"/>
<path d="M26.4922 17.8371L23.8016 19.1333L13.0865 10.2388L9.90973 9.24502L-3.1736 -0.879377H0.604259L13.6802 9.00471L17.1535 10.1963L26.4922 17.8371Z" fill="#F50100"/>
<mask id="path-9-inside-1_610_14603" fill="white">
<path fill-rule="evenodd" clip-rule="evenodd" d="M14.8329 -1.5H9.16626V6H-1.47949V12H9.16626V19.5H14.8329V12H25.5205V6H14.8329V-1.5Z"/>
</mask>
<path fill-rule="evenodd" clip-rule="evenodd" d="M14.8329 -1.5H9.16626V6H-1.47949V12H9.16626V19.5H14.8329V12H25.5205V6H14.8329V-1.5Z" fill="#F50100"/>
<path d="M9.16626 -1.5V-3H7.66626V-1.5H9.16626ZM14.8329 -1.5H16.3329V-3H14.8329V-1.5ZM9.16626 6V7.5H10.6663V6H9.16626ZM-1.47949 6V4.5H-2.97949V6H-1.47949ZM-1.47949 12H-2.97949V13.5H-1.47949V12ZM9.16626 12H10.6663V10.5H9.16626V12ZM9.16626 19.5H7.66626V21H9.16626V19.5ZM14.8329 19.5V21H16.3329V19.5H14.8329ZM14.8329 12V10.5H13.3329V12H14.8329ZM25.5205 12V13.5H27.0205V12H25.5205ZM25.5205 6H27.0205V4.5H25.5205V6ZM14.8329 6H13.3329V7.5H14.8329V6ZM9.16626 0H14.8329V-3H9.16626V0ZM10.6663 6V-1.5H7.66626V6H10.6663ZM-1.47949 7.5H9.16626V4.5H-1.47949V7.5ZM0.0205078 12V6H-2.97949V12H0.0205078ZM9.16626 10.5H-1.47949V13.5H9.16626V10.5ZM10.6663 19.5V12H7.66626V19.5H10.6663ZM14.8329 18H9.16626V21H14.8329V18ZM13.3329 12V19.5H16.3329V12H13.3329ZM25.5205 10.5H14.8329V13.5H25.5205V10.5ZM24.0205 6V12H27.0205V6H24.0205ZM14.8329 7.5H25.5205V4.5H14.8329V7.5ZM13.3329 -1.5V6H16.3329V-1.5H13.3329Z" fill="white" mask="url(#path-9-inside-1_610_14603)"/>
</g>
</g>
</g>
</svg>
