<svg width="24" height="27" viewBox="0 0 24 27" fill="none" xmlns="http://www.w3.org/2000/svg">
<path d="M21 11.4868C21 18.5329 12 24.5723 12 24.5723C12 24.5723 3 18.5329 3 11.4868C3 9.08417 3.94821 6.77992 5.63604 5.08099C7.32387 3.38206 9.61305 2.42761 12 2.42761C14.3869 2.42761 16.6761 3.38206 18.364 5.08099C20.0518 6.77992 21 9.08417 21 11.4868Z" stroke="#1E293B" stroke-width="1.6" stroke-linecap="round" stroke-linejoin="round"/>
<path d="M12 14.5066C13.6569 14.5066 15 13.1547 15 11.4869C15 9.81915 13.6569 8.46716 12 8.46716C10.3431 8.46716 9 9.81915 9 11.4869C9 13.1547 10.3431 14.5066 12 14.5066Z" stroke="#1E293B" stroke-width="1.6" stroke-linecap="round" stroke-linejoin="round"/>
</svg>
