<svg width="80" height="83" viewBox="0 0 80 83" fill="none" xmlns="http://www.w3.org/2000/svg">
<g filter="url(#filter0_d_786_13876)">
<path d="M43.7496 7.0835H18.0827C16.3809 7.0835 14.7488 7.75954 13.5454 8.96291C12.3421 10.1663 11.666 11.7984 11.666 13.5002V64.834C11.666 66.5358 12.3421 68.1679 13.5454 69.3713C14.7488 70.5746 16.3809 71.2507 18.0827 71.2507H56.583C58.2849 71.2507 59.917 70.5746 61.1203 69.3713C62.3237 68.1679 62.9997 66.5358 62.9997 64.834V26.3336L43.7496 7.0835Z" fill="#27AE60"/>
<path d="M43.7496 7.0835H18.0827C16.3809 7.0835 14.7488 7.75954 13.5454 8.96291C12.3421 10.1663 11.666 11.7984 11.666 13.5002V64.834C11.666 66.5358 12.3421 68.1679 13.5454 69.3713C14.7488 70.5746 16.3809 71.2507 18.0827 71.2507H56.583C58.2849 71.2507 59.917 70.5746 61.1203 69.3713C62.3237 68.1679 62.9997 66.5358 62.9997 64.834V26.3336L43.7496 7.0835Z" stroke="#27AE60" stroke-width="4.52945" stroke-linecap="round" stroke-linejoin="round"/>
</g>
<path d="M43.7495 7.0835V26.3336H62.9997" stroke="white" stroke-width="4.52945" stroke-linecap="round" stroke-linejoin="round"/>
<path d="M50.1664 42.3755H24.4995" stroke="white" stroke-width="4.52945" stroke-linecap="round" stroke-linejoin="round"/>
<path d="M50.1664 55.209H24.4995" stroke="white" stroke-width="4.52945" stroke-linecap="round" stroke-linejoin="round"/>
<path d="M30.9162 29.5417H27.7079H24.4995" stroke="white" stroke-width="4.52945" stroke-linecap="round" stroke-linejoin="round"/>
<defs>
<filter id="filter0_d_786_13876" x="9.40137" y="4.81885" width="62.6575" height="77.7554" filterUnits="userSpaceOnUse" color-interpolation-filters="sRGB">
<feFlood flood-opacity="0" result="BackgroundImageFix"/>
<feColorMatrix in="SourceAlpha" type="matrix" values="0 0 0 0 0 0 0 0 0 0 0 0 0 0 0 0 0 0 127 0" result="hardAlpha"/>
<feOffset dx="6.79417" dy="9.05889"/>
<feComposite in2="hardAlpha" operator="out"/>
<feColorMatrix type="matrix" values="0 0 0 0 0.152941 0 0 0 0 0.682353 0 0 0 0 0.376471 0 0 0 0.7 0"/>
<feBlend mode="normal" in2="BackgroundImageFix" result="effect1_dropShadow_786_13876"/>
<feBlend mode="normal" in="SourceGraphic" in2="effect1_dropShadow_786_13876" result="shape"/>
</filter>
</defs>
</svg>
