<svg width="80" height="80" viewBox="0 0 80 80" fill="none" xmlns="http://www.w3.org/2000/svg">
<g filter="url(#filter0_d_786_13872)">
<path d="M67.1875 30.2085C67.1875 51.3543 40 69.4793 40 69.4793C40 69.4793 12.8125 51.3543 12.8125 30.2085C12.8125 22.9979 15.6769 16.0827 20.7755 10.984C25.8742 5.88538 32.7894 3.021 40 3.021C47.2106 3.021 54.1258 5.88538 59.2245 10.984C64.3231 16.0827 67.1875 22.9979 67.1875 30.2085Z" fill="#27AE60"/>
<path d="M67.1875 30.2085C67.1875 51.3543 40 69.4793 40 69.4793C40 69.4793 12.8125 51.3543 12.8125 30.2085C12.8125 22.9979 15.6769 16.0827 20.7755 10.984C25.8742 5.88538 32.7894 3.021 40 3.021C47.2106 3.021 54.1258 5.88538 59.2245 10.984C64.3231 16.0827 67.1875 22.9979 67.1875 30.2085Z" stroke="#27AE60" stroke-width="5" stroke-linecap="round" stroke-linejoin="round"/>
</g>
<path d="M40 39.271C45.0051 39.271 49.0625 35.2136 49.0625 30.2085C49.0625 25.2034 45.0051 21.146 40 21.146C34.9949 21.146 30.9375 25.2034 30.9375 30.2085C30.9375 35.2136 34.9949 39.271 40 39.271Z" fill="white"/>
<defs>
<filter id="filter0_d_786_13872" x="10.3125" y="0.520996" width="66.875" height="78.9583" filterUnits="userSpaceOnUse" color-interpolation-filters="sRGB">
<feFlood flood-opacity="0" result="BackgroundImageFix"/>
<feColorMatrix in="SourceAlpha" type="matrix" values="0 0 0 0 0 0 0 0 0 0 0 0 0 0 0 0 0 0 127 0" result="hardAlpha"/>
<feOffset dx="7.5" dy="7.5"/>
<feComposite in2="hardAlpha" operator="out"/>
<feColorMatrix type="matrix" values="0 0 0 0 0.152941 0 0 0 0 0.682353 0 0 0 0 0.376471 0 0 0 0.7 0"/>
<feBlend mode="normal" in2="BackgroundImageFix" result="effect1_dropShadow_786_13872"/>
<feBlend mode="normal" in="SourceGraphic" in2="effect1_dropShadow_786_13872" result="shape"/>
</filter>
</defs>
</svg>
