<svg width="223" height="75" viewBox="0 0 223 75" fill="none" xmlns="http://www.w3.org/2000/svg">
<g clip-path="url(#clip0_1157_14989)">
<path d="M55.2427 39.148C54.8503 39.1246 54.4622 39.2388 54.1456 39.4707C53.8289 39.7026 53.6038 40.0376 53.5092 40.4175C52.9597 43.3072 51.5939 45.9807 49.5721 48.1242C47.5503 50.2677 44.9565 51.7922 42.0953 52.5186C39.234 53.2451 36.224 53.1434 33.4187 52.2254C30.6134 51.3075 28.1293 49.6115 26.2581 47.3364C24.3868 45.0614 23.206 42.3018 22.8544 39.3817C22.5028 36.4616 22.9949 33.5022 24.273 30.8509C25.5511 28.1997 27.5621 25.9666 30.0699 24.414C32.5777 22.8614 35.4782 22.0537 38.4308 22.0856C38.814 22.0856 39.184 21.9463 39.4715 21.6938C39.7589 21.4414 39.9441 21.0932 39.9922 20.7146C40.0177 20.4968 39.9961 20.2761 39.9289 20.0674C39.8617 19.8586 39.7503 19.6666 39.6024 19.5043C39.4545 19.3419 39.2735 19.213 39.0714 19.1261C38.8693 19.0393 38.6509 18.9965 38.4308 19.0007C34.9046 19.0059 31.4529 20.011 28.4791 21.8983C25.5053 23.7856 23.1325 26.4772 21.638 29.6583C20.1436 32.8394 19.5893 36.3786 20.04 39.8619C20.4908 43.3452 21.9278 46.6287 24.1832 49.3285C26.4386 52.0283 29.4191 54.0327 32.7761 55.1073C36.1331 56.182 39.7279 56.2825 43.1402 55.3971C46.5525 54.5117 49.6411 52.677 52.045 50.1075C54.4489 47.538 56.0686 44.3399 56.7148 40.8873C56.7404 40.6754 56.722 40.4606 56.6607 40.2561C56.5994 40.0517 56.4965 39.862 56.3584 39.6988C56.2203 39.5357 56.05 39.4026 55.858 39.3078C55.6661 39.2131 55.4566 39.1587 55.2427 39.148Z" fill="white"/>
<path d="M38.3862 59.5365C35.4447 59.5935 32.5213 59.0668 29.7864 57.9869C27.0515 56.907 24.5598 55.2957 22.4565 53.2468C20.3532 51.1979 18.6805 48.7524 17.5359 46.053C16.3913 43.3536 15.7977 40.4543 15.7896 37.524C15.7816 34.5937 16.3593 31.6912 17.4891 28.9856C18.6189 26.28 20.2782 23.8255 22.3701 21.7652C24.4621 19.7049 26.945 18.08 29.6739 16.9853C32.4029 15.8905 35.3234 15.3479 38.2651 15.3889C39.0097 15.3741 39.7492 15.5144 40.4362 15.8007C41.1232 16.0871 41.7425 16.5133 42.2545 17.052C42.9361 17.796 43.383 18.7232 43.5395 19.7183C43.6961 20.7133 43.5553 21.7323 43.1349 22.6483C42.7145 23.5643 42.0329 24.337 41.1749 24.8701C40.317 25.4032 39.3205 25.6732 38.3097 25.6466C36.056 25.6508 33.8499 26.2927 31.9485 27.4976C30.047 28.7025 28.5284 30.4208 27.5697 32.4522C26.6109 34.4837 26.2514 36.7446 26.5331 38.9717C26.8148 41.1988 27.7261 43.3004 29.1607 45.0315C30.5954 46.7626 32.4944 48.052 34.6365 48.7495C36.7786 49.447 39.0756 49.5239 41.2599 48.9712C43.4442 48.4185 45.4258 47.259 46.9739 45.6277C48.522 43.9964 49.5729 41.9606 50.0041 39.7573C50.2712 38.4984 50.99 37.3796 52.026 36.6107C53.0619 35.8418 54.3438 35.4756 55.6314 35.5806C56.3163 35.6413 56.9822 35.8369 57.5905 36.1562C58.1988 36.4755 58.7373 36.912 59.1747 37.4405C59.6133 37.9658 59.941 38.5739 60.1381 39.2283C60.3352 39.8827 60.3977 40.57 60.3219 41.249L60.2773 41.5791C59.2945 46.6409 56.571 51.2032 52.5755 54.4807C48.5799 57.7583 43.5623 59.5461 38.3862 59.5365Z" fill="white"/>
<path d="M38.1633 45.4703C39.7527 45.4703 41.3064 45.0008 42.628 44.1213C43.9495 43.2418 44.9796 41.9917 45.5878 40.5291C46.1961 39.0665 46.3552 37.4571 46.0451 35.9044C45.7351 34.3517 44.9697 32.9255 43.8458 31.806C42.7219 30.6866 41.2899 29.9243 39.7311 29.6154C38.1722 29.3066 36.5563 29.4651 35.0879 30.0709C33.6195 30.6767 32.3644 31.7027 31.4813 33.019C30.5983 34.3353 30.127 35.8828 30.127 37.4659C30.127 39.5888 30.9736 41.6248 32.4807 43.1259C33.9878 44.627 36.0319 45.4703 38.1633 45.4703Z" fill="#F49B4D"/>
<path d="M70.3466 40.5953C69.6115 40.5364 68.8804 40.7491 68.2927 41.1928C67.705 41.6365 67.3018 42.2802 67.1601 43.001C66.1548 48.4548 63.6082 53.5097 59.8193 57.5722C56.0304 61.6348 51.1565 64.5363 45.7698 65.9363C40.3831 67.3362 34.7072 67.1764 29.4084 65.4756C24.1097 63.7748 19.4082 60.6036 15.8558 56.3343C12.3033 52.065 10.0475 46.8749 9.35315 41.3733C8.65877 35.8717 9.55467 30.287 11.9356 25.2748C14.3166 20.2626 18.0839 16.031 22.7951 13.0768C27.5062 10.1227 32.9658 8.56858 38.5328 8.59699C39.266 8.59164 39.9715 8.31749 40.5146 7.82689C41.0577 7.33629 41.4004 6.66362 41.4771 5.93735C41.5074 5.53665 41.4569 5.13397 41.3287 4.75297C41.2005 4.37198 40.9972 4.02034 40.7306 3.71874C40.464 3.41715 40.1396 3.17166 39.7764 2.99673C39.4132 2.82179 39.0185 2.72093 38.6157 2.70006C20.1341 2.61755 4.30366 16.8235 3.29036 35.5235C2.28344 53.1382 15.1504 68.931 32.7334 71.7557C41.7553 73.2673 51.0133 71.2123 58.5369 66.028C66.0606 60.8436 71.2558 52.9394 73.0169 43.9976C73.0786 43.5977 73.0575 43.1895 72.9548 42.7981C72.8522 42.4067 72.6702 42.0403 72.42 41.7216C72.1699 41.4029 71.8569 41.1385 71.5003 40.9448C71.1437 40.7511 70.7511 40.6322 70.3466 40.5953Z" fill="#F49B4D"/>
<path d="M38.6857 74.9295C36.5507 74.9275 34.4194 74.7535 32.3127 74.409C13.4679 71.3812 -0.457039 54.2299 0.619991 35.3712C1.69065 15.5159 18.3049 0.00866699 38.4754 0.00866699H38.6538C39.4522 0.0374266 40.2361 0.229827 40.9565 0.573854C41.6769 0.917882 42.3184 1.40615 42.8408 2.00816C43.554 2.82344 44.0152 3.82679 44.1688 4.89725C44.3224 5.9677 44.1618 7.05955 43.7064 8.04115C43.251 9.02276 42.5203 9.85221 41.6023 10.4295C40.6843 11.0068 39.6183 11.3073 38.5327 11.2947H38.3925C33.3953 11.3291 28.5108 12.7767 24.3076 15.4689C20.1044 18.1611 16.7554 21.9871 14.6507 26.5016C12.546 31.016 11.7721 36.033 12.4192 40.9686C13.0662 45.9041 15.1076 50.555 18.3055 54.3798C21.5035 58.2045 25.7265 61.0458 30.4828 62.5728C35.2391 64.0997 40.3331 64.2495 45.1716 63.0047C50.0101 61.7599 54.394 59.1717 57.813 55.5415C61.2319 51.9113 63.5451 47.3885 64.4834 42.4996C64.7589 41.1205 65.5355 39.8911 66.6643 39.0467C67.7931 38.2022 69.1949 37.8021 70.6014 37.9229C71.3722 37.9921 72.1203 38.219 72.7991 38.5892C73.4778 38.9595 74.0726 39.4652 74.5463 40.0748C75.02 40.6835 75.3653 41.3814 75.5613 42.1264C75.7574 42.8714 75.8001 43.6483 75.687 44.4102C74.0632 52.9979 69.4754 60.7496 62.718 66.3232C55.9607 71.8967 47.4592 74.9412 38.6857 74.9295ZM38.3606 5.38509C30.1059 5.35824 22.1544 8.48238 16.1412 14.1152C10.1279 19.748 6.50974 27.4614 6.03063 35.6695C5.08106 51.8242 17.0176 66.5189 33.1794 69.1024C41.5164 70.5515 50.0912 68.6783 57.0539 63.8867C64.0167 59.0951 68.8092 51.7693 70.3975 43.4898C70.3975 43.4898 70.3593 43.42 70.321 43.3755C70.295 43.3429 70.2621 43.3163 70.2247 43.2977C70.1872 43.279 70.1462 43.2688 70.1043 43.2676H70.0597C69.993 43.2963 69.9343 43.3408 69.8888 43.3972C69.8432 43.4536 69.8122 43.5203 69.7984 43.5913C68.6836 49.5348 65.8924 55.0392 61.7514 59.4603C57.6104 63.8814 52.2909 67.0365 46.4154 68.5563C40.5398 70.0762 34.3512 69.8979 28.5737 68.0424C22.7961 66.1869 17.6686 62.731 13.791 58.0789C9.91347 53.4268 7.44629 47.771 6.67816 41.7732C5.91003 35.7755 6.87272 29.6839 9.45358 24.2113C12.0344 18.7386 16.1267 14.1112 21.2516 10.8705C26.3765 7.62983 32.322 5.90989 38.3925 5.91194C38.5646 5.91194 38.7876 5.86116 38.8131 5.639C38.7175 5.48665 38.6283 5.39144 38.5008 5.38509H38.3606Z" fill="#F49B4D"/>
<path d="M50.0042 15.243C49.9891 13.2773 50.3909 11.3306 51.1832 9.53015C51.9551 7.8086 53.0545 6.25228 54.4206 4.94717C55.8233 3.61193 57.4754 2.56382 59.2832 1.86224C62.888 0.52715 66.83 0.3913 70.5187 1.47503C71.7703 1.87467 72.9804 2.39333 74.1322 3.02385C75.0821 3.59516 75.9668 4.26773 76.7706 5.02969C76.8382 5.09723 76.8802 5.18598 76.8895 5.28087C76.8988 5.37576 76.8748 5.47093 76.8216 5.5502L72.2458 12.5643C72.2158 12.6096 72.1768 12.6484 72.1313 12.6782C72.0858 12.708 72.0346 12.7283 71.9809 12.7378C71.9273 12.7473 71.8722 12.7459 71.8192 12.7335C71.7661 12.7211 71.7161 12.6981 71.6722 12.6659C71.2635 12.3937 70.8378 12.1477 70.3976 11.9295C69.8489 11.6301 69.2727 11.3836 68.677 11.1932C68.0118 10.9805 67.3171 10.8734 66.6185 10.8758C65.3085 10.8206 64.0255 11.2579 63.0241 12.1009C62.5821 12.5041 62.2292 12.9945 61.9877 13.5409C61.7462 14.0873 61.6215 14.6777 61.6215 15.2747C61.6215 15.8717 61.7462 16.4622 61.9877 17.0086C62.2292 17.555 62.5821 18.0453 63.0241 18.4485C64.0271 19.2888 65.309 19.7257 66.6185 19.6736C67.3154 19.6782 68.0091 19.5798 68.677 19.3816C69.2728 19.213 69.8494 18.9832 70.3976 18.6961C70.8398 18.4721 71.2658 18.2176 71.6722 17.9344C71.7161 17.9021 71.7661 17.8791 71.8192 17.8668C71.8722 17.8544 71.9273 17.8529 71.9809 17.8624C72.0346 17.8719 72.0858 17.8922 72.1313 17.922C72.1768 17.9519 72.2158 17.9906 72.2458 18.0359L76.8152 24.9802C76.8684 25.0595 76.8924 25.1547 76.8831 25.2495C76.8738 25.3444 76.8318 25.4332 76.7642 25.5007C75.9769 26.2862 75.0924 26.9687 74.1322 27.532C72.9891 28.1768 71.777 28.6921 70.5187 29.0681C68.85 29.5706 67.1123 29.8083 65.3694 29.7727C63.2876 29.7919 61.2214 29.4126 59.2832 28.6555C57.4754 27.9539 55.8233 26.9058 54.4206 25.5705C53.0473 24.2579 51.9453 22.6902 51.1768 20.9558C50.3867 19.155 49.9871 17.2082 50.0042 15.243Z" fill="white"/>
<path d="M91.5367 20.1814H101.931C102.041 20.1814 102.146 20.2248 102.224 20.3022C102.302 20.3796 102.345 20.4845 102.345 20.594V29.2902C102.345 29.3441 102.335 29.3974 102.314 29.4471C102.293 29.4968 102.262 29.5419 102.224 29.5797C102.185 29.6175 102.139 29.6473 102.089 29.6674C102.039 29.6874 101.985 29.6973 101.931 29.6964H80.7346C80.6808 29.6973 80.6274 29.6874 80.5775 29.6673C80.5276 29.6471 80.4823 29.6173 80.4442 29.5794C80.4062 29.5415 80.3762 29.4963 80.356 29.4467C80.3358 29.397 80.3259 29.3438 80.3267 29.2902V1.17028C80.3259 1.1164 80.3358 1.06289 80.3559 1.01287C80.376 0.962847 80.4059 0.917311 80.4439 0.878913C80.4819 0.840514 80.5271 0.810022 80.577 0.78921C80.6269 0.768398 80.6805 0.757684 80.7346 0.75769H90.7146C90.8234 0.759357 90.9271 0.803561 91.0034 0.880758C91.0797 0.957954 91.1225 1.06195 91.1225 1.17028V19.8005C91.1305 19.9044 91.1777 20.0013 91.2545 20.072C91.3314 20.1426 91.4322 20.1817 91.5367 20.1814Z" fill="white"/>
<path d="M116.053 29.7028H106.086C105.978 29.7028 105.874 29.66 105.798 29.5838C105.721 29.5076 105.678 29.4043 105.678 29.2965V1.17028C105.678 1.06195 105.721 0.957954 105.797 0.880758C105.874 0.803561 105.977 0.759357 106.086 0.75769H116.066C116.176 0.75769 116.281 0.80116 116.359 0.878536C116.437 0.955913 116.48 1.06086 116.48 1.17028V29.3156C116.478 29.3689 116.465 29.4213 116.442 29.4697C116.419 29.518 116.387 29.5614 116.348 29.5974C116.308 29.6334 116.261 29.6612 116.211 29.6793C116.161 29.6974 116.107 29.7053 116.053 29.7028Z" fill="white"/>
<path d="M120.623 15.243C120.608 13.2773 121.01 11.3306 121.802 9.53016C122.576 7.80808 123.677 6.25172 125.046 4.94718C126.448 3.61194 128.1 2.56383 129.908 1.86224C133.508 0.518132 137.447 0.371152 141.137 1.4433C142.389 1.84294 143.599 2.36161 144.751 2.99212C145.7 3.57377 146.583 4.25702 147.383 5.0297C147.45 5.09723 147.492 5.18599 147.502 5.28088C147.511 5.37577 147.487 5.47094 147.434 5.55021L142.871 12.5643C142.841 12.6096 142.802 12.6484 142.756 12.6782C142.711 12.7081 142.66 12.7283 142.606 12.7378C142.552 12.7473 142.497 12.7459 142.444 12.7335C142.391 12.7211 142.341 12.6981 142.297 12.6659C141.889 12.3828 141.464 12.1263 141.023 11.8978C140.474 11.5984 139.898 11.3518 139.302 11.1615C138.637 10.9488 137.942 10.8417 137.244 10.8441C135.934 10.7889 134.651 11.2262 133.649 12.0692C133.207 12.4724 132.854 12.9628 132.613 13.5092C132.371 14.0556 132.247 14.646 132.247 15.243C132.247 15.84 132.371 16.4304 132.613 16.9768C132.854 17.5232 133.207 18.0136 133.649 18.4168C134.652 19.2571 135.934 19.694 137.244 19.6419C137.94 19.6465 138.634 19.5481 139.302 19.3499C139.898 19.1812 140.474 18.9515 141.023 18.6644C141.465 18.4404 141.891 18.1859 142.297 17.9026C142.341 17.8704 142.391 17.8474 142.444 17.835C142.497 17.8227 142.552 17.8212 142.606 17.8307C142.66 17.8402 142.711 17.8605 142.756 17.8903C142.802 17.9201 142.841 17.9589 142.871 18.0042L147.44 24.9485C147.493 25.0278 147.517 25.1229 147.508 25.2178C147.499 25.3127 147.457 25.4015 147.389 25.469C146.601 26.253 145.716 26.9354 144.757 27.5002C143.613 28.1565 142.399 28.6824 141.137 29.0681C139.469 29.5706 137.731 29.8084 135.988 29.7727C133.906 29.7919 131.84 29.4126 129.902 28.6555C128.094 27.9539 126.442 26.9058 125.039 25.5706C123.666 24.2579 122.564 22.6902 121.795 20.9558C121.005 19.155 120.606 17.2083 120.623 15.243Z" fill="white"/>
<path d="M171.307 15.243L179.662 29.1125C179.704 29.1745 179.729 29.247 179.732 29.3219C179.736 29.3968 179.719 29.4713 179.682 29.537C179.646 29.6028 179.592 29.6572 179.527 29.6943C179.461 29.7314 179.387 29.7497 179.311 29.7473H167.84C167.764 29.7484 167.689 29.7282 167.623 29.6889C167.558 29.6496 167.505 29.5929 167.47 29.5251L161.735 18.1629V29.3156C161.736 29.3692 161.726 29.4224 161.706 29.4721C161.685 29.5218 161.655 29.5669 161.617 29.6048C161.579 29.6427 161.534 29.6726 161.484 29.6927C161.434 29.7128 161.381 29.7227 161.327 29.7219H151.334C151.281 29.7219 151.228 29.7113 151.179 29.6908C151.13 29.6704 151.085 29.6403 151.048 29.6025C151.011 29.5647 150.981 29.5199 150.961 29.4706C150.942 29.4214 150.932 29.3687 150.933 29.3156V1.13861C150.933 1.03195 150.975 0.929575 151.05 0.853569C151.125 0.777562 151.227 0.734027 151.334 0.732361H161.34C161.448 0.732361 161.552 0.775161 161.628 0.851347C161.705 0.927533 161.748 1.03086 161.748 1.13861V12.3421L166.629 1.00531C166.66 0.931306 166.712 0.868153 166.779 0.824019C166.846 0.779885 166.925 0.756799 167.005 0.757751H178.515C178.591 0.754045 178.666 0.771481 178.732 0.808097C178.799 0.844713 178.854 0.899057 178.891 0.965016C178.928 1.03097 178.946 1.10593 178.942 1.18145C178.939 1.25698 178.914 1.33007 178.872 1.39251L171.307 15.243Z" fill="white"/>
<path d="M200.948 15.573V20.7273C200.948 20.7678 200.94 20.808 200.924 20.8453C200.908 20.8827 200.885 20.9166 200.856 20.945C200.827 20.9734 200.792 20.9957 200.755 21.0106C200.717 21.0255 200.676 21.0328 200.635 21.0319H196.468C196.386 21.0336 196.308 21.0671 196.251 21.1253C196.194 21.1834 196.162 21.2616 196.162 21.343V32.5148C196.16 32.5961 196.126 32.6736 196.068 32.7306C196.01 32.7876 195.931 32.8195 195.849 32.8194H189.923C189.841 32.8194 189.764 32.7873 189.706 32.7302C189.649 32.6731 189.617 32.5956 189.617 32.5148V21.343C189.617 21.2605 189.584 21.1814 189.525 21.123C189.467 21.0647 189.387 21.0319 189.304 21.0319H185.143C185.102 21.0328 185.062 21.0255 185.024 21.0106C184.986 20.9957 184.951 20.9734 184.922 20.945C184.893 20.9166 184.87 20.8827 184.854 20.8453C184.839 20.808 184.831 20.7678 184.831 20.7273V15.573C184.832 15.4916 184.866 15.4141 184.924 15.3572C184.983 15.3002 185.061 15.2683 185.143 15.2683H200.635C200.717 15.2683 200.796 15.3002 200.854 15.3572C200.912 15.4141 200.946 15.4916 200.948 15.573Z" fill="white"/>
<path d="M221.59 24.0408C221.606 25.2145 221.373 26.3785 220.908 27.4568C220.442 28.5352 219.754 29.5038 218.888 30.2996C217.985 31.133 216.926 31.7802 215.771 32.2039C213.196 33.1008 210.392 33.1008 207.818 32.2039C206.666 31.7787 205.609 31.1316 204.708 30.2996C203.84 29.503 203.147 28.5358 202.673 27.4592C202.199 26.3825 201.954 25.2196 201.954 24.044C201.954 22.8684 202.199 21.7055 202.673 20.6289C203.147 19.5522 203.84 18.585 204.708 17.7884C205.612 16.9678 206.668 16.3316 207.818 15.9159C210.392 15.0189 213.196 15.0189 215.771 15.9159C216.923 16.3301 217.982 16.9664 218.888 17.7884C219.758 18.581 220.451 19.5475 220.921 20.6249C221.391 21.7022 221.627 22.8662 221.615 24.0408H221.59ZM214.541 24.0408C214.545 23.6749 214.466 23.3128 214.312 22.9808C214.167 22.6642 213.964 22.3778 213.713 22.1365C213.183 21.6513 212.489 21.3837 211.769 21.3875C211.399 21.3841 211.031 21.4508 210.686 21.5843C210.361 21.7134 210.063 21.9005 209.806 22.1365C209.557 22.378 209.356 22.6645 209.213 22.9808C208.933 23.6621 208.933 24.4259 209.213 25.1072C209.356 25.4235 209.557 25.71 209.806 25.9515C210.063 26.1875 210.361 26.3747 210.686 26.5037C211.031 26.6372 211.399 26.7039 211.769 26.7005C212.489 26.7043 213.183 26.4367 213.713 25.9515C213.964 25.7102 214.167 25.4238 214.312 25.1072C214.467 24.7732 214.545 24.4089 214.541 24.0408Z" fill="white"/>
<path d="M94.6978 56.3628V52.294C94.6978 52.2115 94.7307 52.1324 94.7892 52.0741C94.8478 52.0157 94.9272 51.983 95.01 51.983H104.346C104.387 51.983 104.428 51.991 104.466 52.0066C104.504 52.0223 104.538 52.0452 104.567 52.0741C104.596 52.103 104.619 52.1372 104.635 52.175C104.651 52.2127 104.659 52.2532 104.659 52.294V61.5298C103.822 62.4977 102.842 63.3326 101.753 64.0053C100.574 64.7237 99.3137 65.3011 97.9989 65.7255C96.2612 66.2669 94.4469 66.5241 92.6266 66.4873C90.5472 66.508 88.4833 66.1309 86.5467 65.3764C84.7439 64.6716 83.0949 63.6263 81.6906 62.2978C80.324 60.9847 79.2266 59.4195 78.4595 57.6895C77.6788 55.8852 77.2761 53.9413 77.2761 51.9766C77.2761 50.012 77.6788 48.068 78.4595 46.2638C79.2251 44.5328 80.3226 42.9674 81.6906 41.6554C83.0927 40.3273 84.7425 39.2857 86.5467 38.5895C90.1546 37.2396 94.1061 37.0992 97.8014 38.1896C99.051 38.5891 100.259 39.1078 101.408 39.7384C102.38 40.3359 103.282 41.0384 104.098 41.8331C104.147 41.8853 104.177 41.9522 104.184 42.0234C104.191 42.0946 104.174 42.1661 104.136 42.2267L99.4329 49.3805C99.4117 49.4154 99.3834 49.4455 99.3498 49.4689C99.3162 49.4923 99.278 49.5084 99.2378 49.5161C99.1975 49.5239 99.1561 49.5232 99.1162 49.514C99.0762 49.5049 99.0386 49.4875 99.0059 49.463C98.5728 49.1612 98.1192 48.8897 97.6484 48.6505C97.0975 48.3562 96.519 48.116 95.9214 47.9332C95.2584 47.7205 94.5658 47.6133 93.8693 47.6158C92.5611 47.5597 91.2798 47.9972 90.2813 48.8409C89.8437 49.2427 89.4945 49.7305 89.2556 50.2735C89.0167 50.8165 88.8934 51.4029 88.8934 51.9957C88.8934 52.5885 89.0167 53.1749 89.2556 53.7178C89.4945 54.2608 89.8437 54.7486 90.2813 55.1504C91.2798 55.9941 92.5611 56.4316 93.8693 56.3755L94.6978 56.3628Z" fill="white"/>
<path d="M122.911 56.147C123.35 56.1574 123.787 56.077 124.194 55.911C124.601 55.7449 124.969 55.4968 125.275 55.1822C125.602 54.8295 125.854 54.4152 126.017 53.9639C126.18 53.5126 126.251 53.0333 126.225 52.5543V37.8151C126.225 37.7751 126.233 37.7355 126.248 37.6985C126.263 37.6616 126.286 37.628 126.314 37.5997C126.343 37.5714 126.377 37.5489 126.414 37.5336C126.451 37.5183 126.491 37.5104 126.531 37.5104H136.727C136.768 37.5096 136.808 37.5169 136.846 37.5319C136.883 37.5469 136.917 37.5693 136.946 37.5978C136.974 37.6262 136.997 37.6602 137.012 37.6975C137.027 37.7349 137.034 37.7749 137.033 37.8151V52.7003C137.049 54.6069 136.69 56.4981 135.975 58.2671C135.319 59.9013 134.332 61.3835 133.076 62.6216C131.796 63.8554 130.278 64.8184 128.615 65.4526C124.934 66.8069 120.888 66.8069 117.207 65.4526C115.543 64.82 114.025 63.8568 112.746 62.6216C111.49 61.382 110.501 59.9003 109.84 58.2671C109.134 56.4942 108.781 54.6012 108.801 52.6939V37.8151C108.801 37.7343 108.833 37.6568 108.891 37.5997C108.948 37.5425 109.026 37.5104 109.107 37.5104H119.304C119.385 37.5104 119.463 37.5425 119.52 37.5997C119.577 37.6568 119.61 37.7343 119.61 37.8151V52.5543C119.582 53.0368 119.653 53.5199 119.817 53.9746C119.981 54.4294 120.236 54.8466 120.566 55.2012C120.871 55.51 121.237 55.7532 121.64 55.9159C122.043 56.0786 122.476 56.1572 122.911 56.147Z" fill="white"/>
<path d="M152.469 66.4365H142.272C142.191 66.4365 142.113 66.4044 142.055 66.3473C141.998 66.2901 141.966 66.2126 141.966 66.1318V37.8151C141.965 37.7749 141.972 37.7349 141.987 37.6975C142.002 37.6602 142.025 37.6262 142.054 37.5978C142.082 37.5693 142.116 37.5469 142.154 37.5319C142.191 37.5169 142.231 37.5096 142.272 37.5104H152.469C152.509 37.5096 152.549 37.5169 152.587 37.5319C152.624 37.5469 152.658 37.5693 152.687 37.5978C152.715 37.6262 152.738 37.6602 152.753 37.6975C152.768 37.7349 152.775 37.7749 152.774 37.8151V66.1318C152.774 66.2126 152.742 66.2901 152.685 66.3473C152.627 66.4044 152.55 66.4365 152.469 66.4365Z" fill="white"/>
<path d="M186.8 51.9703C186.825 53.9873 186.473 55.9914 185.761 57.8799C185.087 59.6158 184.024 61.1749 182.651 62.4375C181.149 63.7726 179.381 64.7783 177.463 65.3891C175.117 66.1284 172.665 66.4821 170.205 66.4365H161.493C160.331 66.4411 159.17 66.3648 158.019 66.208C157.946 66.1972 157.879 66.1605 157.831 66.1044C157.783 66.0484 157.757 65.977 157.758 65.9033V37.8151C157.757 37.7749 157.765 37.7349 157.78 37.6975C157.795 37.6602 157.817 37.6262 157.846 37.5978C157.874 37.5693 157.908 37.5469 157.946 37.5319C157.983 37.5169 158.024 37.5096 158.064 37.5104H170.205C172.665 37.4661 175.116 37.8176 177.463 38.5515C179.383 39.1619 181.151 40.17 182.651 41.5094C184.022 42.7706 185.082 44.3304 185.748 46.067C186.465 47.9523 186.821 49.9545 186.8 51.9703ZM170.23 57.5118C170.903 57.552 171.576 57.4526 172.208 57.2198C172.84 56.9871 173.416 56.6261 173.901 56.1597C174.768 55.2584 175.207 53.8555 175.207 51.9513C175.207 50.047 174.768 48.6441 173.901 47.7428C173.416 47.2764 172.84 46.9154 172.208 46.6827C171.576 46.4499 170.903 46.3505 170.23 46.3907H168.873C168.792 46.3924 168.715 46.425 168.658 46.4818C168.601 46.5386 168.568 46.6151 168.567 46.6954V57.2071C168.568 57.2874 168.601 57.3639 168.658 57.4207C168.715 57.4775 168.792 57.5101 168.873 57.5118H170.23Z" fill="white"/>
<path d="M192.44 66.4173V60.0697C192.44 59.9618 192.58 59.8793 192.752 59.8793H221.621C221.787 59.8793 221.927 59.9618 221.927 60.0697V66.4173C221.927 66.5252 221.787 66.6077 221.621 66.6077H192.758C192.58 66.6077 192.44 66.5189 192.44 66.4173Z" fill="#F49B4D"/>
<path d="M192.44 44.042V37.6944C192.44 37.5865 192.58 37.504 192.752 37.504H221.621C221.787 37.504 221.927 37.5865 221.927 37.6944V44.042C221.927 44.1499 221.787 44.2324 221.621 44.2324H192.758C192.58 44.2324 192.44 44.1499 192.44 44.042Z" fill="#F49B4D"/>
<path d="M192.44 55.2138V48.8662C192.442 48.8386 192.45 48.8118 192.463 48.7873C192.476 48.7628 192.493 48.7411 192.515 48.7234C192.536 48.7057 192.561 48.6923 192.587 48.6842C192.614 48.676 192.641 48.6731 192.669 48.6757H213.789C213.844 48.6722 213.898 48.6902 213.94 48.7257C213.981 48.7613 214.007 48.8117 214.012 48.8662V55.2138C214.007 55.2682 213.981 55.3186 213.94 55.3542C213.898 55.3898 213.844 55.4077 213.789 55.4042H192.669C192.614 55.4078 192.559 55.3901 192.516 55.3547C192.474 55.3192 192.446 55.2688 192.44 55.2138Z" fill="#F49B4D"/>
</g>
<defs>
<clipPath id="clip0_1157_14989">
<rect width="223" height="75" fill="white"/>
</clipPath>
</defs>
</svg>
