<svg width="233" height="123" viewBox="0 0 233 123" fill="none" xmlns="http://www.w3.org/2000/svg">
<g clip-path="url(#clip0_3979_27164)">
<path d="M59.2449 51.2244C58.8805 51.2027 58.5199 51.3088 58.2258 51.5242C57.9317 51.7395 57.7226 52.0507 57.6347 52.4036C57.1243 55.0877 55.8557 57.571 53.9778 59.562C52.0998 61.553 49.6906 62.969 47.0328 63.6438C44.3751 64.3185 41.5793 64.2241 38.9736 63.3714C36.3679 62.5188 34.0605 60.9434 32.3224 58.8302C30.5843 56.7171 29.4875 54.1538 29.1609 51.4415C28.8343 48.7291 29.2914 45.9802 30.4786 43.5176C31.6658 41.055 33.5337 38.9808 35.8631 37.5387C38.1924 36.0966 40.8866 35.3463 43.6291 35.376C43.9851 35.3759 44.3288 35.2465 44.5958 35.012C44.8628 34.7776 45.0347 34.4542 45.0794 34.1024C45.1031 33.9002 45.083 33.6952 45.0206 33.5013C44.9582 33.3074 44.8548 33.1291 44.7174 32.9783C44.58 32.8275 44.4118 32.7077 44.2241 32.627C44.0364 32.5463 43.8335 32.5066 43.6291 32.5105C40.3538 32.5154 37.1476 33.4489 34.3854 35.202C31.6232 36.955 29.4192 39.4551 28.0311 42.4099C26.643 45.3647 26.1281 48.652 26.5468 51.8875C26.9654 55.123 28.3003 58.1729 30.3952 60.6806C32.4901 63.1883 35.2585 65.0501 38.3767 66.0483C41.4949 67.0465 44.834 67.1399 48.0035 66.3175C51.173 65.495 54.0419 63.7908 56.2747 61.4042C58.5076 59.0175 60.0121 56.0469 60.6123 52.8399C60.6361 52.6431 60.619 52.4436 60.562 52.2537C60.5051 52.0638 60.4095 51.8876 60.2812 51.736C60.153 51.5845 59.9948 51.4609 59.8165 51.3729C59.6382 51.2849 59.4436 51.2343 59.2449 51.2244Z" fill="#1E2346"/>
<path d="M43.5885 70.1622C40.8564 70.2152 38.141 69.7259 35.6006 68.7229C33.0603 67.7199 30.7458 66.2232 28.7922 64.32C26.8386 62.4169 25.2849 60.1454 24.2217 57.6381C23.1585 55.1307 22.6072 52.4377 22.5997 49.7159C22.5922 46.9941 23.1288 44.298 24.1783 41.7849C25.2277 39.2718 26.7689 36.992 28.712 35.0782C30.6552 33.1645 32.9614 31.6552 35.4962 30.6384C38.031 29.6215 40.7437 29.1175 43.4761 29.1556C44.1677 29.1418 44.8546 29.2721 45.4927 29.5381C46.1308 29.8041 46.7061 30.2 47.1817 30.7003C47.8148 31.3914 48.2299 32.2527 48.3753 33.177C48.5207 34.1012 48.39 35.0477 47.9994 35.8985C47.6089 36.7493 46.9758 37.467 46.1789 37.9622C45.382 38.4574 44.4565 38.7082 43.5175 38.6835C41.4242 38.6874 39.3751 39.2836 37.6089 40.4028C35.8427 41.522 34.4322 43.118 33.5416 45.0049C32.6511 46.8918 32.3172 48.992 32.5788 51.0606C32.8405 53.1292 33.6869 55.0812 35.0195 56.6892C36.3521 58.2971 38.116 59.4948 40.1057 60.1427C42.0954 60.7906 44.229 60.862 46.2578 60.3486C48.2867 59.8353 50.1273 58.7582 51.5653 57.243C53.0033 55.7278 53.9794 53.8368 54.3799 51.7903C54.628 50.6209 55.2957 49.5817 56.2579 48.8675C57.2202 48.1534 58.4108 47.8132 59.6068 47.9107C60.243 47.9671 60.8616 48.1488 61.4266 48.4454C61.9916 48.7419 62.4918 49.1474 62.8981 49.6383C63.3055 50.1262 63.6099 50.691 63.793 51.2989C63.976 51.9067 64.0341 52.5451 63.9636 53.1759L63.9222 53.4825C63.0094 58.1841 60.4796 62.4218 56.7683 65.4662C53.0571 68.5106 48.3964 70.1712 43.5885 70.1622Z" fill="#1E2346"/>
<path d="M43.3806 57.097C44.8569 57.097 46.3001 56.661 47.5276 55.844C48.7552 55.0271 49.7119 53.8659 50.2769 52.5074C50.8419 51.1488 50.9897 49.6539 50.7017 48.2117C50.4137 46.7695 49.7027 45.4447 48.6588 44.4049C47.6149 43.3651 46.2848 42.657 44.8368 42.3702C43.3888 42.0833 41.888 42.2305 40.524 42.7932C39.16 43.356 37.9942 44.3089 37.174 45.5316C36.3538 46.7542 35.916 48.1917 35.916 49.6622C35.916 51.634 36.7025 53.5251 38.1023 54.9194C39.5022 56.3137 41.4008 57.097 43.3806 57.097Z" fill="#F49B4D"/>
<path d="M73.2743 52.5688C72.5915 52.5141 71.9124 52.7117 71.3665 53.1238C70.8206 53.536 70.4461 54.1338 70.3145 54.8034C69.3807 59.8692 67.0153 64.5644 63.4959 68.3379C59.9766 72.1114 55.4494 74.8066 50.446 76.1069C45.4425 77.4072 40.1704 77.2588 35.2487 75.679C30.327 74.0992 25.9599 71.1536 22.6602 67.1881C19.3606 63.2226 17.2652 58.4017 16.6203 53.2915C15.9753 48.1813 16.8074 42.9939 19.019 38.3383C21.2306 33.6827 24.7298 29.7522 29.1058 27.0082C33.4818 24.2642 38.553 22.8207 43.7239 22.8471C44.4049 22.8421 45.0602 22.5875 45.5647 22.1318C46.0692 21.6761 46.3875 21.0513 46.4587 20.3767C46.4869 20.0045 46.44 19.6305 46.3209 19.2766C46.2018 18.9227 46.0129 18.5961 45.7653 18.3159C45.5177 18.0358 45.2164 17.8078 44.879 17.6453C44.5416 17.4828 44.1751 17.3891 43.8009 17.3697C26.6342 17.2931 11.93 30.4883 10.9888 47.8579C10.0535 64.2193 22.0051 78.8886 38.3371 81.5123C46.7171 82.9164 55.3164 81.0075 62.3048 76.1921C69.2932 71.3766 74.1188 64.0347 75.7546 55.7291C75.8119 55.3577 75.7923 54.9785 75.6969 54.6149C75.6016 54.2514 75.4325 53.9111 75.2002 53.615C74.9678 53.319 74.6771 53.0734 74.3459 52.8935C74.0147 52.7136 73.65 52.6031 73.2743 52.5688Z" fill="#F49B4D"/>
<path d="M43.8658 84.4603C41.8828 84.4585 39.9032 84.2968 37.9463 83.9769C20.4422 81.1645 7.50801 65.2335 8.50841 47.7165C9.50289 29.2738 24.9351 14.8699 43.6705 14.8699H43.8363C44.5779 14.8966 45.306 15.0753 45.9751 15.3948C46.6443 15.7144 47.2401 16.1679 47.7254 16.7271C48.3878 17.4844 48.8162 18.4164 48.9589 19.4106C49.1015 20.4049 48.9524 21.4191 48.5294 22.3309C48.1064 23.2426 47.4277 24.0131 46.575 24.5493C45.7223 25.0855 44.7321 25.3646 43.7238 25.353H43.5935C38.9519 25.3849 34.4149 26.7295 30.5107 29.2302C26.6065 31.7308 23.4959 35.2847 21.5409 39.4779C19.5859 43.6711 18.8671 48.3313 19.4681 52.9156C20.0691 57.5 21.9652 61.82 24.9357 65.3727C27.9061 68.9253 31.8287 71.5645 36.2466 72.9828C40.6645 74.4011 45.3961 74.5402 49.8903 73.384C54.3846 72.2277 58.4566 69.8237 61.6323 66.4518C64.808 63.0798 66.9567 58.8788 67.8282 54.3377C68.0841 53.0567 68.8054 51.9148 69.8539 51.1305C70.9024 50.3461 72.2045 49.9745 73.5109 50.0867C74.2269 50.151 74.9218 50.3617 75.5522 50.7056C76.1827 51.0495 76.7352 51.5192 77.1751 52.0854C77.6152 52.6508 77.9359 53.2991 78.118 53.9911C78.3 54.6831 78.3398 55.4047 78.2347 56.1124C76.7264 64.0891 72.465 71.2893 66.1884 76.4663C59.9118 81.6434 52.0152 84.4713 43.8658 84.4603ZM43.564 19.8638C35.8965 19.8388 28.5108 22.7407 22.9253 27.9728C17.3398 33.2048 13.9791 40.3694 13.5341 47.9936C12.6521 62.9989 23.7394 76.6482 38.7514 79.0478C46.4952 80.3939 54.46 78.6539 60.9273 74.2032C67.3946 69.7525 71.8462 62.948 73.3215 55.2575C73.3215 55.2575 73.286 55.1926 73.2505 55.1513C73.2263 55.121 73.1958 55.0963 73.161 55.079C73.1262 55.0617 73.0881 55.0522 73.0492 55.0511H73.0078C72.9458 55.0777 72.8913 55.1191 72.849 55.1715C72.8067 55.2239 72.7779 55.2858 72.7651 55.3518C71.7295 60.8724 69.1369 65.9852 65.2906 70.0917C61.4442 74.1983 56.5032 77.1289 51.0456 78.5406C45.5881 79.9524 39.8398 79.7868 34.4733 78.0633C29.1068 76.3398 24.344 73.1297 20.7424 68.8086C17.1407 64.4875 14.849 59.2341 14.1356 53.663C13.4221 48.092 14.3163 42.4339 16.7135 37.3505C19.1108 32.2672 22.9119 27.9691 27.6722 24.9589C32.4325 21.9488 37.955 20.3512 43.5935 20.3532C43.7534 20.3532 43.9606 20.306 43.9842 20.0996C43.8954 19.9581 43.8126 19.8697 43.6942 19.8638H43.564Z" fill="#F49B4D"/>
<path d="M54.3794 29.0203C54.3654 27.1944 54.7386 25.3862 55.4745 23.7139C56.1915 22.1148 57.2127 20.6692 58.4816 19.457C59.7845 18.2167 61.319 17.2432 62.9983 16.5915C66.3465 15.3514 70.0081 15.2252 73.4344 16.2319C74.5969 16.6031 75.7209 17.0848 76.7908 17.6705C77.6731 18.2012 78.4949 18.8259 79.2415 19.5336C79.3042 19.5964 79.3433 19.6788 79.3519 19.7669C79.3605 19.8551 79.3382 19.9435 79.2888 20.0171L75.0386 26.5322C75.0107 26.5743 74.9745 26.6103 74.9322 26.638C74.8899 26.6657 74.8424 26.6845 74.7926 26.6934C74.7427 26.7022 74.6916 26.7008 74.6423 26.6893C74.593 26.6778 74.5466 26.6565 74.5058 26.6265C74.1262 26.3737 73.7308 26.1452 73.3219 25.9426C72.8122 25.6645 72.2771 25.4355 71.7237 25.2586C71.1058 25.0611 70.4606 24.9616 69.8117 24.9638C68.5949 24.9126 67.4032 25.3187 66.473 26.1018C66.0625 26.4763 65.7346 26.9318 65.5103 27.4393C65.286 27.9468 65.1702 28.4953 65.1702 29.0498C65.1702 29.6043 65.286 30.1527 65.5103 30.6602C65.7346 31.1678 66.0625 31.6233 66.473 31.9978C67.4046 32.7783 68.5953 33.1841 69.8117 33.1357C70.4589 33.1399 71.1033 33.0485 71.7237 32.8645C72.2771 32.7078 72.8127 32.4944 73.3219 32.2277C73.7327 32.0197 74.1283 31.7833 74.5058 31.5202C74.5466 31.4902 74.593 31.4689 74.6423 31.4574C74.6916 31.4459 74.7427 31.4445 74.7926 31.4533C74.8424 31.4622 74.8899 31.481 74.9322 31.5087C74.9745 31.5364 75.0107 31.5724 75.0386 31.6145L79.2829 38.0648C79.3323 38.1384 79.3546 38.2268 79.346 38.3149C79.3373 38.4031 79.2983 38.4855 79.2356 38.5482C78.5042 39.2778 77.6827 39.9118 76.7908 40.4349C75.729 41.0339 74.6032 41.5125 73.4344 41.8618C71.8844 42.3285 70.2703 42.5494 68.6514 42.5162C66.7177 42.5341 64.7985 42.1818 62.9983 41.4785C61.319 40.8269 59.7845 39.8533 58.4816 38.6131C57.206 37.3938 56.1824 35.9377 55.4686 34.3267C54.7347 32.6539 54.3635 30.8457 54.3794 29.0203Z" fill="#1E2346"/>
<path d="M92.9565 33.6072H102.611C102.713 33.6072 102.811 33.6476 102.883 33.7194C102.955 33.7913 102.996 33.8888 102.996 33.9904V42.0679C102.996 42.118 102.986 42.1676 102.967 42.2137C102.947 42.2599 102.919 42.3018 102.883 42.3369C102.847 42.372 102.805 42.3997 102.758 42.4183C102.711 42.4369 102.661 42.4461 102.611 42.4453H82.9228C82.8729 42.4461 82.8232 42.4369 82.7769 42.4182C82.7306 42.3995 82.6885 42.3717 82.6532 42.3365C82.6178 42.3013 82.59 42.2594 82.5712 42.2133C82.5524 42.1671 82.5432 42.1177 82.544 42.0679V15.9487C82.5432 15.8986 82.5524 15.8489 82.5711 15.8025C82.5898 15.756 82.6176 15.7137 82.6528 15.678C82.6881 15.6424 82.7301 15.614 82.7765 15.5947C82.8228 15.5754 82.8726 15.5654 82.9228 15.5654H92.1929C92.2939 15.567 92.3902 15.608 92.4611 15.6797C92.532 15.7514 92.5717 15.848 92.5717 15.9487V33.2534C92.5792 33.3499 92.623 33.4399 92.6943 33.5056C92.7657 33.5712 92.8594 33.6075 92.9565 33.6072Z" fill="#1E2346"/>
<path d="M115.73 42.4512H106.472C106.371 42.4512 106.275 42.4114 106.204 42.3407C106.133 42.2699 106.093 42.1739 106.093 42.0738V15.9487C106.093 15.848 106.132 15.7514 106.203 15.6797C106.274 15.608 106.371 15.567 106.472 15.5654H115.742C115.844 15.5654 115.942 15.6058 116.014 15.6777C116.086 15.7495 116.126 15.847 116.126 15.9487V42.0915C116.124 42.1411 116.112 42.1897 116.091 42.2347C116.07 42.2796 116.04 42.3199 116.003 42.3533C115.966 42.3867 115.923 42.4126 115.876 42.4293C115.829 42.4461 115.78 42.4536 115.73 42.4512Z" fill="#1E2346"/>
<path d="M119.973 29.0202C119.959 27.1944 120.332 25.3861 121.068 23.7138C121.787 22.1143 122.81 20.6686 124.081 19.4569C125.384 18.2167 126.919 17.2431 128.598 16.5914C131.941 15.343 135.6 15.2064 139.028 16.2023C140.191 16.5735 141.315 17.0553 142.385 17.6409C143.266 18.1812 144.086 18.8158 144.829 19.5335C144.892 19.5963 144.931 19.6787 144.94 19.7669C144.948 19.855 144.926 19.9434 144.877 20.017L140.638 26.5321C140.61 26.5742 140.574 26.6102 140.532 26.6379C140.49 26.6656 140.442 26.6845 140.392 26.6933C140.342 26.7021 140.291 26.7007 140.242 26.6892C140.193 26.6777 140.146 26.6564 140.106 26.6264C139.727 26.3635 139.331 26.1252 138.922 25.913C138.412 25.6349 137.877 25.4059 137.323 25.2291C136.705 25.0315 136.06 24.932 135.411 24.9343C134.195 24.883 133.003 25.2892 132.073 26.0722C131.662 26.4467 131.334 26.9022 131.11 27.4097C130.886 27.9172 130.77 28.4657 130.77 29.0202C130.77 29.5747 130.886 30.1232 131.11 30.6307C131.334 31.1382 131.662 31.5937 132.073 31.9682C133.004 32.7487 134.195 33.1545 135.411 33.1061C136.059 33.1104 136.703 33.019 137.323 32.8349C137.877 32.6783 138.412 32.4649 138.922 32.1981C139.332 31.9901 139.728 31.7537 140.106 31.4906C140.146 31.4607 140.193 31.4393 140.242 31.4278C140.291 31.4163 140.342 31.415 140.392 31.4238C140.442 31.4326 140.49 31.4515 140.532 31.4792C140.574 31.5069 140.61 31.5429 140.638 31.585L144.883 38.0352C144.932 38.1088 144.954 38.1972 144.946 38.2854C144.937 38.3735 144.898 38.4559 144.835 38.5187C144.103 39.2469 143.281 39.8807 142.39 40.4054C141.328 41.0149 140.2 41.5034 139.028 41.8617C137.478 42.3284 135.864 42.5493 134.245 42.5161C132.311 42.534 130.392 42.1817 128.592 41.4785C126.913 40.8268 125.378 39.8532 124.075 38.613C122.8 37.3938 121.776 35.9376 121.062 34.3266C120.328 32.6539 119.957 30.8456 119.973 29.0202Z" fill="#1E2346"/>
<path d="M167.052 29.0202L174.812 41.903C174.852 41.9606 174.874 42.0279 174.878 42.0975C174.881 42.1671 174.865 42.2363 174.831 42.2973C174.797 42.3584 174.747 42.4089 174.687 42.4434C174.626 42.4779 174.557 42.4949 174.487 42.4926H163.832C163.761 42.4936 163.691 42.4749 163.63 42.4384C163.57 42.4019 163.52 42.3492 163.488 42.2862L158.161 31.7324V42.0917C158.161 42.1414 158.152 42.1909 158.133 42.237C158.115 42.2832 158.087 42.3251 158.051 42.3603C158.016 42.3955 157.974 42.4232 157.928 42.4419C157.881 42.4606 157.832 42.4698 157.782 42.469H148.5C148.45 42.469 148.401 42.4592 148.356 42.4402C148.31 42.4212 148.269 42.3933 148.234 42.3581C148.199 42.323 148.172 42.2814 148.154 42.2356C148.135 42.1899 148.126 42.1409 148.127 42.0917V15.9193C148.127 15.8203 148.166 15.7252 148.236 15.6546C148.306 15.584 148.4 15.5435 148.5 15.542H157.794C157.894 15.542 157.99 15.5817 158.062 15.6525C158.133 15.7233 158.172 15.8193 158.172 15.9193V26.3258L162.707 15.7955C162.735 15.7268 162.784 15.6681 162.846 15.6271C162.908 15.5861 162.981 15.5647 163.056 15.5656H173.747C173.817 15.5621 173.887 15.5783 173.949 15.6123C174.011 15.6464 174.061 15.6968 174.096 15.7581C174.13 15.8194 174.147 15.889 174.144 15.9591C174.141 16.0293 174.118 16.0972 174.078 16.1552L167.052 29.0202Z" fill="#1E2346"/>
<path d="M194.584 29.3267V34.1143C194.584 34.1519 194.576 34.1892 194.562 34.2239C194.547 34.2587 194.526 34.2901 194.499 34.3165C194.471 34.3428 194.439 34.3636 194.404 34.3774C194.369 34.3913 194.332 34.3981 194.294 34.3973H190.422C190.346 34.3988 190.274 34.4299 190.221 34.4839C190.168 34.538 190.138 34.6106 190.138 34.6862V45.0631C190.137 45.1387 190.105 45.2107 190.051 45.2636C189.997 45.3165 189.924 45.3462 189.848 45.3461H184.343C184.268 45.3461 184.195 45.3163 184.142 45.2632C184.089 45.2102 184.059 45.1382 184.059 45.0631V34.6862C184.059 34.6096 184.028 34.5361 183.974 34.4819C183.92 34.4277 183.846 34.3973 183.769 34.3973H179.903C179.866 34.3981 179.828 34.3913 179.793 34.3774C179.758 34.3636 179.726 34.3428 179.699 34.3165C179.672 34.2901 179.65 34.2587 179.635 34.2239C179.621 34.1892 179.613 34.1519 179.613 34.1143V29.3267C179.615 29.2511 179.646 29.1791 179.7 29.1262C179.755 29.0733 179.827 29.0437 179.903 29.0437H194.294C194.37 29.0437 194.443 29.0733 194.497 29.1262C194.551 29.1791 194.582 29.2511 194.584 29.3267Z" fill="#1E2347"/>
<path d="M213.757 37.192C213.772 38.2822 213.556 39.3633 213.124 40.3649C212.691 41.3666 212.052 42.2663 211.247 43.0055C210.409 43.7796 209.425 44.3807 208.352 44.7743C205.961 45.6074 203.356 45.6074 200.965 44.7743C199.895 44.3793 198.913 43.7783 198.076 43.0055C197.27 42.2656 196.626 41.3672 196.186 40.3671C195.746 39.367 195.519 38.2869 195.519 37.195C195.519 36.103 195.746 35.0229 196.186 34.0228C196.626 33.0227 197.27 32.1243 198.076 31.3844C198.916 30.6222 199.897 30.0313 200.965 29.6451C203.356 28.812 205.961 28.812 208.352 29.6451C209.423 30.0299 210.406 30.6209 211.247 31.3844C212.056 32.1206 212.699 33.0184 213.136 34.0191C213.572 35.0198 213.792 36.101 213.781 37.192H213.757ZM207.21 37.192C207.213 36.8521 207.14 36.5157 206.997 36.2074C206.863 35.9134 206.674 35.6473 206.44 35.4232C205.948 34.9725 205.303 34.7239 204.635 34.7275C204.291 34.7243 203.949 34.7863 203.629 34.9103C203.327 35.0301 203.05 35.204 202.812 35.4232C202.58 35.6475 202.393 35.9136 202.261 36.2074C202.001 36.8403 202.001 37.5497 202.261 38.1825C202.393 38.4763 202.58 38.7424 202.812 38.9667C203.05 39.1859 203.327 39.3598 203.629 39.4797C203.949 39.6036 204.291 39.6657 204.635 39.6624C205.303 39.666 205.948 39.4174 206.44 38.9667C206.674 38.7426 206.863 38.4766 206.997 38.1825C207.141 37.8722 207.214 37.5339 207.21 37.192Z" fill="#1E2347"/>
<path d="M95.8931 67.2144V63.435C95.8931 63.3584 95.9236 63.2849 95.978 63.2307C96.0324 63.1766 96.1062 63.1461 96.1831 63.1461H104.855C104.893 63.1461 104.931 63.1536 104.966 63.1681C105.001 63.1826 105.033 63.2039 105.06 63.2307C105.087 63.2576 105.109 63.2894 105.123 63.3245C105.138 63.3595 105.145 63.3971 105.145 63.435V72.0137C104.369 72.9128 103.458 73.6882 102.446 74.3131C101.351 74.9804 100.181 75.5167 98.9594 75.911C97.3453 76.4138 95.6601 76.6527 93.9692 76.6185C92.0379 76.6377 90.1208 76.2874 88.322 75.5867C86.6474 74.932 85.1157 73.961 83.8113 72.7271C82.542 71.5074 81.5227 70.0536 80.8101 68.4466C80.085 66.7708 79.7109 64.9651 79.7109 63.1402C79.7109 61.3153 80.085 59.5097 80.8101 57.8338C81.5212 56.226 82.5407 54.772 83.8113 53.5533C85.1137 52.3197 86.6461 51.3522 88.322 50.7056C91.6731 49.4517 95.3436 49.3213 98.7759 50.3341C99.9366 50.7052 101.059 51.1869 102.126 51.7727C103.028 52.3277 103.866 52.9802 104.624 53.7184C104.67 53.7669 104.698 53.829 104.705 53.8952C104.711 53.9613 104.695 54.0277 104.66 54.084L100.291 60.7288C100.272 60.7612 100.245 60.7892 100.214 60.8109C100.183 60.8326 100.147 60.8476 100.11 60.8548C100.073 60.862 100.034 60.8613 99.9971 60.8528C99.96 60.8443 99.9251 60.8282 99.8947 60.8054C99.4924 60.5251 99.0711 60.2729 98.6338 60.0507C98.1221 59.7774 97.5848 59.5542 97.0296 59.3845C96.4138 59.1869 95.7705 59.0874 95.1235 59.0897C93.9084 59.0375 92.7183 59.4439 91.7908 60.2276C91.3844 60.6008 91.06 61.0539 90.8381 61.5583C90.6162 62.0626 90.5017 62.6073 90.5017 63.1579C90.5017 63.7085 90.6162 64.2532 90.8381 64.7576C91.06 65.2619 91.3844 65.715 91.7908 66.0882C92.7183 66.8719 93.9084 67.2783 95.1235 67.2261L95.8931 67.2144Z" fill="#1E2347"/>
<path d="M122.099 67.0138C122.507 67.0235 122.913 66.9488 123.291 66.7946C123.669 66.6404 124.011 66.4099 124.295 66.1176C124.598 65.79 124.832 65.4053 124.984 64.986C125.135 64.5668 125.201 64.1216 125.177 63.6767V49.9862C125.177 49.949 125.184 49.9122 125.199 49.8779C125.213 49.8436 125.234 49.8124 125.26 49.7861C125.287 49.7598 125.318 49.739 125.352 49.7247C125.387 49.7105 125.424 49.7032 125.461 49.7032H134.932C134.97 49.7024 135.007 49.7092 135.042 49.7231C135.077 49.737 135.109 49.7578 135.135 49.7843C135.162 49.8107 135.183 49.8422 135.197 49.8769C135.211 49.9116 135.217 49.9488 135.217 49.9862V63.8123C135.231 65.5833 134.897 67.34 134.234 68.9831C133.624 70.501 132.707 71.8778 131.541 73.0278C130.352 74.1738 128.942 75.0683 127.397 75.6574C123.978 76.9153 120.22 76.9153 116.801 75.6574C115.255 75.0698 113.845 74.1751 112.657 73.0278C111.491 71.8764 110.572 70.5001 109.958 68.9831C109.302 67.3363 108.974 65.578 108.993 63.8064V49.9862C108.993 49.9111 109.023 49.8392 109.076 49.7861C109.129 49.733 109.202 49.7032 109.277 49.7032H118.748C118.824 49.7032 118.896 49.733 118.949 49.7861C119.003 49.8392 119.033 49.9111 119.033 49.9862V63.6767C119.007 64.1249 119.073 64.5736 119.225 64.996C119.378 65.4184 119.614 65.8059 119.92 66.1353C120.204 66.4222 120.544 66.6481 120.918 66.7992C121.293 66.9503 121.695 67.0233 122.099 67.0138Z" fill="#1E2347"/>
<path d="M149.553 76.5713H140.082C140.007 76.5713 139.934 76.5414 139.881 76.4884C139.828 76.4353 139.798 76.3633 139.798 76.2883V49.9862C139.797 49.9488 139.804 49.9116 139.818 49.8769C139.832 49.8422 139.853 49.8107 139.879 49.7843C139.906 49.7578 139.938 49.737 139.972 49.7231C140.007 49.7092 140.045 49.7024 140.082 49.7032H149.553C149.591 49.7024 149.628 49.7092 149.663 49.7231C149.698 49.737 149.729 49.7578 149.756 49.7843C149.783 49.8107 149.803 49.8422 149.817 49.8769C149.831 49.9116 149.838 49.9488 149.837 49.9862V76.2883C149.837 76.3633 149.808 76.4353 149.754 76.4884C149.701 76.5414 149.629 76.5713 149.553 76.5713Z" fill="#1E2347"/>
<path d="M181.442 63.1343C181.466 65.0078 181.138 66.8693 180.477 68.6234C179.852 70.2358 178.864 71.684 177.589 72.8568C176.193 74.0969 174.551 75.031 172.77 75.5984C170.591 76.2851 168.313 76.6137 166.028 76.5712H157.936C156.857 76.5755 155.779 76.5046 154.71 76.359C154.642 76.349 154.58 76.3148 154.535 76.2628C154.49 76.2108 154.466 76.1444 154.467 76.076V49.9862C154.466 49.9488 154.473 49.9116 154.487 49.8769C154.501 49.8422 154.522 49.8107 154.548 49.7843C154.575 49.7578 154.606 49.737 154.641 49.7231C154.676 49.7091 154.713 49.7024 154.751 49.7032H166.028C168.313 49.662 170.59 49.9885 172.77 50.6701C174.553 51.2372 176.195 52.1735 177.589 53.4176C178.862 54.5891 179.847 56.0379 180.466 57.651C181.131 59.4022 181.462 61.2619 181.442 63.1343ZM166.051 68.2815C166.676 68.3188 167.302 68.2265 167.889 68.0103C168.476 67.7941 169.011 67.4588 169.461 67.0256C170.266 66.1884 170.675 64.8854 170.675 63.1166C170.675 61.3478 170.266 60.0448 169.461 59.2075C169.011 58.7743 168.476 58.439 167.889 58.2228C167.302 58.0066 166.676 57.9143 166.051 57.9517H164.791C164.716 57.9532 164.644 57.9835 164.591 58.0362C164.538 58.089 164.508 58.1601 164.506 58.2347V67.9985C164.508 68.073 164.538 68.1442 164.591 68.1969C164.644 68.2497 164.716 68.28 164.791 68.2815H166.051Z" fill="#1E2347"/>
<path d="M186.681 76.5538V70.6578C186.681 70.5576 186.811 70.481 186.971 70.481H213.786C213.94 70.481 214.07 70.5576 214.07 70.6578V76.5538C214.07 76.6541 213.94 76.7307 213.786 76.7307H186.977C186.811 76.7307 186.681 76.6482 186.681 76.5538Z" fill="#F49B4D"/>
<path d="M186.681 55.7701V49.8741C186.681 49.7739 186.811 49.6973 186.971 49.6973H213.786C213.94 49.6973 214.07 49.7739 214.07 49.8741V55.7701C214.07 55.8704 213.94 55.947 213.786 55.947H186.977C186.811 55.947 186.681 55.8704 186.681 55.7701Z" fill="#F49B4D"/>
<path d="M186.681 66.1472V60.2512C186.683 60.2257 186.69 60.2008 186.702 60.178C186.714 60.1552 186.73 60.135 186.75 60.1186C186.77 60.1021 186.793 60.0898 186.818 60.0822C186.842 60.0746 186.868 60.0719 186.894 60.0744H206.511C206.562 60.0711 206.612 60.0877 206.651 60.1208C206.69 60.1538 206.714 60.2007 206.718 60.2512V66.1472C206.714 66.1978 206.69 66.2446 206.651 66.2777C206.612 66.3107 206.562 66.3274 206.511 66.3241H186.894C186.842 66.3275 186.791 66.311 186.752 66.2781C186.712 66.2452 186.687 66.1983 186.681 66.1472Z" fill="#F49B4D"/>
</g>
<defs>
<clipPath id="clip0_3979_27164">
<rect width="233" height="123" fill="white"/>
</clipPath>
</defs>
</svg>
